<?xml version="1.0" encoding="utf-8"?>
<!-- Generator: Adobe Illustrator 24.0.2, SVG Export Plug-In . SVG Version: 6.00 Build 0)  -->
<svg version="1.1" id="Слой_1" xmlns="http://www.w3.org/2000/svg" xmlns:xlink="http://www.w3.org/1999/xlink" x="0px" y="0px"
	 viewBox="0 0 32 32" style="enable-background:new 0 0 32 32;" xml:space="preserve">
<style type="text/css">
	.st0{fill:#FFFFFF;}
</style>
<path class="st0" d="M30,4H2C0.8945,4,0,4.8944998,0,6v20c0,1.1054993,0.8945,2,2,2h28c1.1054993,0,2-0.8945007,2-2V6
	C32,4.8944998,31.1054993,4,30,4z M3,6h26c0.5419998,0,0.9766006,0.4316001,0.9941006,0.9688001L16,17.6982002L2.0058999,6.9688001
	C2.0234001,6.4316001,2.4579999,6,3,6z M29,26H3c-0.4746001,0-0.8534999-0.3369007-0.9561-0.7803001l7.5967002-5.4510994
	c0.4238997-0.3535995,0.4814997-0.9843998,0.1280003-1.4092007C9.415,17.9346008,8.7852001,17.8789005,8.3593998,18.2313995
	L2,22.6669998V9.5663996l13.3593998,10.2022009C15.5448999,19.9228992,15.7725,20,16,20
	c0.2275009,0,0.4550991-0.0771008,0.6406002-0.2313995L30,9.5663996v12.9560995l-6.3593998-4.2910995
	c-0.4258003-0.352499-1.0556011-0.2967987-1.4092007,0.1280003c-0.3535004,0.4248009-0.2959003,1.0556011,0.1280003,1.4092007
	l7.6219997,5.3232002C29.9335995,25.5986004,29.5205002,26,29,26z"/>
</svg>
