<?xml version="1.0" encoding="utf-8"?>
<!-- Generator: Adobe Illustrator 24.0.2, SVG Export Plug-In . SVG Version: 6.00 Build 0)  -->
<svg version="1.1" id="Layer_1" xmlns="http://www.w3.org/2000/svg" xmlns:xlink="http://www.w3.org/1999/xlink" x="0px" y="0px"
	 viewBox="0 0 595.3 595.3" style="enable-background:new 0 0 595.3 595.3;" xml:space="preserve">
<style type="text/css">
	.st0{fill:#FFFFFF;}
</style>
<g>
	<path class="st0" d="M226.5,49.4c66.2,0,120.1,53.9,120.1,120.1c0,11.7,9.5,21.2,21.2,21.2s21.2-9.5,21.2-21.2
		C389,79.9,316.1,7.1,226.6,7.1c-11.7,0-21.2,9.5-21.2,21.2S214.8,49.4,226.5,49.4z"/>
	<path class="st0" d="M226.5,219c-11.7,0-21.2,9.5-21.2,21.2v105.9c0,11.7,9.5,21.2,21.2,21.2s21.2-9.5,21.2-21.2v-106
		C247.7,228.4,238.2,219,226.5,219z"/>
	<path class="st0" d="M226.5,120.1c27.3,0,49.4,22.2,49.4,49.4v105.9c0,50.6,41.2,91.8,91.8,91.8c11.7,0,21.2-9.5,21.2-21.2
		s-9.5-21.2-21.2-21.2c-27.3,0-49.4-22.2-49.4-49.4v-14.1h49.4c11.7,0,21.2-9.5,21.2-21.2s-9.5-21.2-21.2-21.2h-49.4v-49.4
		c0-50.6-41.2-91.8-91.8-91.8c-11.7,0-21.2,9.5-21.2,21.2C205.3,110.6,214.8,120.1,226.5,120.1z"/>
	<circle class="st0" cx="226.5" cy="169.5" r="25"/>
	<path class="st0" d="M96.6,470l5.3,0.3h23.7v-55.1h-13v42.5h-11c-3.3,0-5.8-1.1-7.8-3.3c-2-2.3-3-4.9-3-7.9v-31.3h-13v31.5
		c0,5.4,1.4,10,4.1,13.8s5.9,6.4,9.4,7.7c1.3,0.7,2.2,1,2.8,1.2C94.6,469.6,95.4,469.8,96.6,470z"/>
	<polygon class="st0" points="172.5,470.3 185.5,470.3 185.5,415.2 172.5,415.2 172.5,436.1 150.7,436.1 150.7,415.2 137.7,415.2 
		137.7,470.3 150.7,470.3 150.7,448.7 172.5,448.7 	"/>
	<path class="st0" d="M236.7,467.3l0.9-0.5v-14l-7.9,4.1l-3.6,1.5l-4.1,0.4c-4.3,0-7.7-1.5-10.3-4.7c-2.7-3.2-4-7.1-4-11.9
		c0-4.7,1.5-8.5,4.6-11.5s6.7-4.5,10.8-4.5c2.5,0,4.8,0.6,7,1.9c2,1.1,3.9,3.2,5.4,6.1c1.6,2.7,2.3,6.3,2.3,10.5v50h13v-49.9
		c0-4.3,0.8-7.9,2.3-10.7s3.4-4.8,5.6-6.1c1.2-0.7,2.3-1.2,3.1-1.4l3.8-0.4c4.1,0,7.6,1.4,10.8,4.4c3.1,3,4.7,6.7,4.7,11.5
		c0,4.9-1.3,8.8-4,12c-2.6,3.1-6,4.6-10.2,4.6l-4.3-0.4l-3.5-1.4l-8-3.9v13.8l0.9,0.5c4.8,2.6,10.1,4,15.9,4c0,0,0,0,0.1,0
		c6.5-0.7,11.7-2.5,15.5-5.5c3.9-3.2,6.7-7,8.3-11.2c0.7-1.9,1.2-3.9,1.7-6.4l0.5-6.1c0-4-1-8.3-3-12.7s-5.3-8.2-9.6-11.1
		c-4.4-3-9.8-4.5-16-4.5c-4.4,0-8.7,1-12.7,3c-2,1-3.8,2.3-5.4,3.9c-0.9,0.8-1.9,1.9-3.1,3.6c-0.9-1.3-1.8-2.4-2.8-3.4
		c-1.5-1.6-3.3-2.9-5.4-4.1c-4.2-2-8.4-3-12.7-3c-6.1,0-11.4,1.5-15.9,4.4s-7.7,6.7-9.8,11c-2,4.3-3,8.6-3,12.8
		c0,2.3,0.1,4.2,0.3,5.6s0.4,2.5,0.7,3.4c0.3,1,0.7,2.2,1.3,3.4c1.6,4.1,4.4,7.8,8.3,11.2c3.7,2.8,8.9,4.6,15.7,5.4
		c2.9,0,5.7-0.3,8.2-0.9C231.6,469.8,234.1,468.7,236.7,467.3z"/>
	<path class="st0" d="M308.9,422.7c-5.6,5.6-8.4,12.4-8.4,20.3c0,7.8,2.8,14.6,8.4,20.2s12.4,8.4,20.3,8.4s14.7-2.8,20.3-8.4
		c5.6-5.6,8.4-12.4,8.4-20.3c0-8-2.8-14.8-8.4-20.3s-12.4-8.3-20.3-8.3C321.3,414.3,314.4,417.1,308.9,422.7z M329.2,459.1
		c-4.6,0-8.4-1.5-11.5-4.7c-3.2-3.2-4.7-6.9-4.7-11.3c0-4.5,1.6-8.2,4.8-11.4c3.2-3.2,7-4.8,11.5-4.8c4.6,0,8.3,1.6,11.5,4.8
		s4.8,6.9,4.8,11.4s-1.6,8.2-4.8,11.4C337.4,457.6,333.6,459.1,329.2,459.1z"/>
	<path class="st0" d="M396.9,471.7c0.1,0,0.1,0,0.2,0c6.6-0.8,11.8-2.6,15.5-5.5c3.8-3.3,6.6-7,8.2-11c0.6-1.4,1-2.5,1.3-3.5
		c0.2-0.9,0.4-2,0.7-3.4c0.2-1.4,0.3-3.3,0.3-5.6c0-4.2-1-8.5-3-12.8c-2-4.4-5.3-8.1-9.8-11s-9.8-4.4-15.9-4.4
		c-4.3,0-8.6,1-12.8,3.1c-4.2,2.1-7.7,5.3-10.3,9.5c-1.6,2.6-2.7,5.1-3.4,7.7c-0.7,2.5-1,5.3-1,8.4v51.6h13v-49.4
		c0-4.2,0.8-7.8,2.4-10.6c1.6-2.9,3.4-4.9,5.5-6.1c2-1.2,4.4-1.8,6.9-1.8c4.1,0,7.6,1.4,10.8,4.4c3.1,2.9,4.6,6.7,4.6,11.4
		c0,4.8-1.3,8.6-4,11.8c-2.6,3.1-6,4.6-10.2,4.6l-4.3-0.4l-3.5-1.3l-8-3.8v13.7l0.9,0.5c2.6,1.4,5.1,2.4,7.6,3
		C391.2,471.4,393.8,471.7,396.9,471.7z"/>
	<path class="st0" d="M503.2,420c-0.8-1.7-1.9-3.1-3.6-4.4c-1.5-1-3.3-1.5-5.4-1.5c-4.4,0-7.5,2.3-9.1,6.6l-10.8,30.1l-11.5-30.9
		c-0.8-1.8-2-3.2-3.4-4.1c-1.5-1.2-3.4-1.7-5.6-1.7c-4.7,0-7.8,2.3-9.1,6.6L426,470.3h14.1l13.9-36.8l13.8,36.8h12.5l14-36.7
		l13.8,36.8l14-0.1L503.2,420z"/>
	<path class="st0" d="M71.2,509.1c-3-1.7-6.3-2.5-9.6-2.5c-6.7,0-11.9,2.1-15.6,6.2c-3.7-4.1-8.5-6.2-14.2-6.2
		c-3.9,0-7.5,0.8-10.9,2.5c-3.4,2-5.9,4.4-7.4,6.9c-1,1.6-1.7,3.2-2.2,4.5c-0.5,1.4-0.7,3.1-0.7,5v37.2h13v-33c0-3.3,0.6-6,1.8-8
		c1.1-1.7,3.1-2.6,6.1-2.6c2.6,0,4.5,0.8,5.7,2.4c1.4,1.8,2.1,4.3,2.1,7.5v33.7h13.2v-34.3c0-2.6,0.7-4.8,2-6.7
		c1.4-1.8,3.5-2.6,6.3-2.6s4.6,0.8,5.6,2.6c1.2,1.9,1.9,4.2,1.9,6.7v34.3h13v-37.2c0-3.4-1-6.6-2.9-9.6
		C76.8,513.1,74.3,510.8,71.2,509.1z"/>
	<path class="st0" d="M136,511.4c-4.5-2.9-9.8-4.4-15.9-4.4c-4.3,0-8.6,1-12.8,3.1c-4.2,2.1-7.7,5.3-10.3,9.5
		c-1.6,2.6-2.7,5.2-3.4,7.7c-0.7,2.5-1,5.3-1,8.4v51.6h13v-49.4c0-4.2,0.8-7.8,2.4-10.6c1.6-2.9,3.4-4.9,5.5-6.1s4.4-1.8,6.9-1.8
		c4.1,0,7.6,1.4,10.8,4.4c3.1,2.9,4.6,6.7,4.6,11.4c0,4.8-1.3,8.6-4,11.8c-2.6,3.1-6,4.6-10.2,4.6l-4.3-0.4l-3.5-1.3l-8-3.8v13.5
		l0.9,0.5c2.6,1.4,5.1,2.4,7.6,3s5.1,0.9,8.2,0.9c0.1,0,0.1,0,0.2,0c6.6-0.8,11.8-2.6,15.5-5.5c3.9-3.3,6.6-7.1,8.2-11
		c0.6-1.4,1-2.5,1.3-3.5c0.2-0.9,0.4-2,0.7-3.4c0.2-1.4,0.3-3.3,0.3-5.6c0-4.2-1-8.5-3-12.8C143.7,518,140.4,514.3,136,511.4z"/>
	<path class="st0" d="M183.2,506.5c-8.9,0-16.1,2.8-21.4,8.3c-5,5.2-7.5,11.9-7.5,19.9c0,8.5,2.8,15.5,8.3,20.9s11.9,8.1,19,8.1
		c3.4,0,6.2-0.4,8.5-1.4l7.3-4.2v-17.4l-3.1,3.9c-3.5,4.4-7.4,6.5-11.8,6.5c-4.3,0-7.8-1.6-10.7-4.7c-2.9-3.2-4.4-7.1-4.4-11.8
		c0-5.7,1.8-9.8,5.5-12.6c2.7-2.1,5.8-3.1,9.6-3.1c4.9,0,8.7,1.2,11.3,3.5s3.9,5.1,3.9,8.6v31.5h13.2v-30.8c0-7.1-2.6-13.2-7.9-18.1
		C197.8,509,191.1,506.5,183.2,506.5z"/>
	<polygon class="st0" points="255.8,528.6 233.9,528.6 233.9,507.6 220.9,507.6 220.9,562.7 233.9,562.7 233.9,541.1 255.8,541.1 
		255.8,562.7 268.7,562.7 268.7,507.6 255.8,507.6 	"/>
	<path class="st0" d="M293.6,509.8c-3.3,1.5-6.3,3.7-9,6.6c-4.6,5.4-6.9,11.8-6.9,19c0,7,2.5,13.3,7.3,18.6c5.3,5.8,12.1,8.7,20,8.7
		h11.2v-12.6h-9.5c-4.8,0-8.6-1.6-11.5-4.8c-2.6-2.8-3.9-6-3.9-9.8c0-5.1,1.6-8.9,4.9-11.8c2.9-2.5,6.2-3.7,10.1-3.7h9.9v-12.4H305
		C300.8,507.6,296.9,508.4,293.6,509.8z"/>
	<path class="st0" d="M349.2,506.5c-6.6,0-12.4,2.2-17.2,6.5c-4.4,4.1-6.6,10.4-6.6,18.6v31.1h13v-32.8c0-3.1,1-5.7,3-7.7
		c4.9-4.3,11.1-4.2,15.4,0.4c2.2,2.4,3.3,4.8,3.3,7.3v32.8h13v-32.4c0-6.7-2.3-12.5-7-17.3C361.9,508.7,356.1,506.5,349.2,506.5z"/>
	<path class="st0" d="M410.7,506.8c-7.9,0-14.7,2.8-20.3,8.4c-5.6,5.6-8.4,12.4-8.4,20.3c0,7.8,2.8,14.6,8.4,20.2
		c5.6,5.6,12.4,8.4,20.3,8.4s14.7-2.8,20.3-8.4c5.6-5.6,8.4-12.4,8.4-20.3c0-8-2.8-14.8-8.4-20.3
		C425.4,509.6,418.6,506.8,410.7,506.8z M410.7,551.5c-4.6,0-8.4-1.5-11.5-4.7c-3.2-3.2-4.7-6.9-4.7-11.3s1.6-8.2,4.8-11.4
		c3.2-3.2,7-4.8,11.5-4.8c4.6,0,8.3,1.6,11.5,4.8s4.8,6.9,4.8,11.4s-1.6,8.2-4.8,11.4C418.9,550,415.1,551.5,410.7,551.5z"/>
	<path class="st0" d="M491.9,511.4c-4.5-2.9-9.8-4.4-15.9-4.4c-4.3,0-8.6,1-12.8,3.1c-4.2,2.1-7.7,5.3-10.3,9.5
		c-1.6,2.6-2.7,5.1-3.4,7.7c-0.7,2.5-1,5.3-1,8.4v51.6h13v-49.4c0-4.2,0.8-7.8,2.4-10.6c1.6-2.9,3.4-4.9,5.5-6.1
		c2-1.2,4.4-1.8,6.9-1.8c4.1,0,7.6,1.4,10.8,4.4c3.1,2.9,4.6,6.7,4.6,11.4c0,4.8-1.3,8.6-4,11.8c-2.6,3.1-6,4.6-10.2,4.6l-4.3-0.4
		l-3.5-1.3l-8-3.8v13.7l0.9,0.5c2.6,1.4,5.1,2.4,7.6,3s5.1,0.9,8.2,0.9c0.1,0,0.1,0,0.2,0c6.6-0.8,11.8-2.6,15.5-5.5
		c3.8-3.3,6.6-7,8.2-11c0.6-1.4,1-2.5,1.3-3.5c0.2-0.9,0.4-2,0.7-3.4c0.2-1.4,0.3-3.3,0.3-5.6c0-4.2-1-8.5-3-12.8
		C499.6,518,496.3,514.3,491.9,511.4z"/>
	<path class="st0" d="M580.6,515.9c-1.9-2.9-4.4-5.2-7.4-6.9s-6.3-2.5-9.6-2.5c-6.7,0-11.9,2.1-15.6,6.2c-3.7-4.1-8.5-6.2-14.2-6.2
		c-3.9,0-7.5,0.8-10.9,2.5c-3.4,2-5.9,4.4-7.4,6.9c-1,1.6-1.7,3.2-2.2,4.5c-0.4,1.4-0.7,3.1-0.7,5v37.2h13v-33c0-3.3,0.6-6,1.8-8
		c1.1-1.7,3-2.6,6.1-2.6c2.6,0,4.5,0.8,5.7,2.4c1.4,1.8,2.1,4.3,2.1,7.5v33.7h13.2v-34.3c0-2.6,0.7-4.8,2-6.7
		c1.4-1.8,3.5-2.6,6.3-2.6s4.6,0.8,5.6,2.6c1.2,1.9,1.9,4.2,1.9,6.7v34.3h13v-37.2C583.5,522.1,582.5,518.9,580.6,515.9z"/>
</g>
</svg>
