<?xml version="1.0" encoding="utf-8"?>
<!-- Generator: Adobe Illustrator 24.0.2, SVG Export Plug-In . SVG Version: 6.00 Build 0)  -->
<svg version="1.1" id="Слой_1" xmlns="http://www.w3.org/2000/svg" xmlns:xlink="http://www.w3.org/1999/xlink" x="0px" y="0px"
	 viewBox="0 0 618.3999634 262.5" style="enable-background:new 0 0 618.3999634 262.5;" xml:space="preserve">
<style type="text/css">
	.st0{fill:#FFFFFF;}
</style>
<g>
	<path class="st0" d="M131.3000031,0C58.8000031,0,0,58.7999878,0,131.2999878S58.8000031,262.5,131.3000031,262.5
		s131.2999725-58.7999878,131.2999725-131.2999878C262.5999756,58.8000488,203.8000031,0,131.3000031,0z M119.3000031,186.1000366
		c0,4.5-3.6000061,8.0999756-8.1000061,8.0999756s-8.1000061-3.5999756-8.1000061-8.0999756v-40.7000122
		c0-4.5,3.6000061-8.0999756,8.1000061-8.0999756s8.1000061,3.5999756,8.1000061,8.0999756V186.1000366z M111.1000061,127.9000244
		c-5.3000031,0-9.6000061-4.2999878-9.6000061-9.5999756s4.3000031-9.5999756,9.6000061-9.5999756
		s9.6000061,4.2999878,9.6000061,9.5999756C120.6999969,123.6000366,116.4000092,127.9000244,111.1000061,127.9000244z
		 M165.4000092,178c4.5,0,8.1000061,3.5999756,8.1000061,8.0999756s-3.6000061,8.0999756-8.1000061,8.0999756
		c-19.3999939,0-35.3000031-15.7999878-35.3000031-35.2999878v-40.7000122c0-10.5-8.5-19-19-19
		c-4.5,0-8.1000061-3.5999756-8.1000061-8.0999756S106.6000061,83,111.1000061,83
		C130.5,83,146.4000092,98.7999878,146.4000092,118.2999878v19h19c4.5,0,8.1000061,3.5999756,8.1000061,8.0999756
		s-3.6000061,8.0999756-8.1000061,8.0999756h-19v5.4000244C146.4000092,169.5,154.9000092,178,165.4000092,178z
		 M165.4000092,126.4000244c-4.5,0-8.1000061-3.5999756-8.1000061-8.0999756
		c0-25.4000244-20.6999969-46.0999756-46.1000061-46.0999756c-4.5,0-8.1000061-3.5999756-8.1000061-8.0999756
		s3.6000061-8.0999756,8.1000061-8.0999756c34.3999939,0,62.3999939,28,62.3999939,62.4000244
		C173.5000153,122.8000488,169.9000092,126.4000244,165.4000092,126.4000244z"/>
	<g>
		<path class="st0" d="M350.7000122,85.5h-8.4000244v26.7999878h-6.8999634c-2,0-3.6000366-0.7000122-4.7999878-2.0999756
			c-1.2999878-1.4000244-1.9000244-3-1.9000244-4.9000244V85.5h-8.3999634v20c0,3.4000244,0.8999634,6.2999878,2.5999756,8.7999878
			c1.7000122,2.4000244,3.7999878,4.0999756,6,4.9000244c0.7999878,0.4000244,1.4000244,0.7000122,1.7999878,0.7999878
			c0.4000244,0.0999756,0.9000244,0.2000122,1.6000366,0.2999878L335.6000366,120.5h15v-35H350.7000122z"/>
		<polygon class="st0" points="365.2000122,106.8000488 378.7000122,106.8000488 378.7000122,120.4000244 387.0999756,120.4000244 
			387.0999756,85.5 378.7000122,85.5 378.7000122,98.7000122 365.2000122,98.7000122 365.2000122,85.5 356.7999878,85.5 
			356.7999878,120.4000244 365.2000122,120.4000244 		"/>
		<path class="st0" d="M418,118.5l0.6000366-0.2999878v17.7000122H427v-17.5999756l0.6000366,0.2999878
			c3,1.7000122,6.3999634,2.5,10.0999756,2.5l0,0c4.0999756-0.4000244,7.4000244-1.5999756,9.7999878-3.5
			c2.5-2,4.2000122-4.4000244,5.2000122-7.0999756c0.4000244-1.2000122,0.7999878-2.5,1.0999756-4l0.2999878-3.9000244
			c0-2.5999756-0.5999756-5.2999878-1.9000244-8c-1.2999878-2.7999878-3.2999878-5.2000122-6.0999756-7.0999756
			C443.2999878,85.6000366,439.8999634,84.6000366,436,84.6000366c-2.7999878,0-5.5,0.7000122-8,1.9000244
			c-1.2000122,0.5999756-2.3999634,1.4000244-3.5,2.5c-0.5,0.5-1.0999756,1.2000122-1.8999634,2.0999756
			c-0.5-0.7999878-1.1000366-1.4000244-1.7000122-2.0999756c-1-1-2.1000366-1.9000244-3.4000244-2.5999756
			c-2.5999756-1.2000122-5.2999878-1.9000244-8-1.9000244c-3.7999878,0-7.2000122,1-10,2.7999878
			c-2.7999878,1.9000244-4.8999634,4.2000122-6.2000122,7c-1.2999878,2.7000122-1.8999634,5.5-1.8999634,8.0999756
			c0,1.5,0.0999756,2.7000122,0.2000122,3.5999756c0.0999756,0.9000244,0.2999878,1.5999756,0.3999634,2.2000122
			c0.1000366,0.5999756,0.4000244,1.4000244,0.7999878,2.2000122c1,2.5999756,2.7999878,5,5.2999878,7.0999756
			c2.2999878,1.7999878,5.6000366,2.9000244,9.9000244,3.4000244c1.7999878,0,3.5999756-0.2000122,5.2000122-0.5999756
			C414.7999878,119.9000854,416.2999878,119.5,418,118.5z M418.5,109.2000122l-5.0999756,2.5999756l-2.2999878,0.9000244
			l-2.5,0.2999878c-2.7000122,0-4.7999878-1-6.4000244-2.9000244c-1.7000122-2-2.5-4.5-2.5-7.5
			s0.9000244-5.2999878,2.9000244-7.2000122s4.2000122-2.7999878,6.7000122-2.7999878c1.5999756,0,3,0.4000244,4.3999634,1.2000122
			c1.2999878,0.7000122,2.4000244,2,3.4000244,3.7999878c1,1.7000122,1.5,3.9000244,1.5,6.5999756v5.000061H418.5z
			 M426.9000244,109.4000244v-5.0999756c0-2.7000122,0.5-4.9000244,1.3999634-6.7000122
			c0.9000244-1.7000122,2.0999756-3,3.5-3.7999878c0.7999878-0.4000244,1.4000244-0.7000122,1.9000244-0.9000244
			l2.4000244-0.2999878c2.5,0,4.7000122,0.9000244,6.7000122,2.7999878c2,1.9000244,2.9000244,4.2000122,2.9000244,7.2000122
			c0,3.0999756-0.7999878,5.5-2.5,7.5c-1.5999756,1.9000244-3.7000122,2.9000244-6.2999878,2.9000244l-2.7000122-0.2999878
			l-2.2000122-0.7999878L426.9000244,109.4000244z"/>
		<path class="st0" d="M474.7999878,121.3000488c5,0,9.2999878-1.7999878,12.9000244-5.2999878
			c3.5-3.5,5.2999878-7.9000244,5.2999878-12.9000244s-1.7999878-9.4000244-5.2999878-12.9000244
			s-7.9000244-5.2999878-12.9000244-5.2999878S465.5,86.7000122,461.8999634,90.2000122
			c-3.5,3.5-5.2999878,7.7999878-5.2999878,12.7999878s1.7999878,9.2999878,5.2999878,12.7999878
			C465.5,119.5,469.7999878,121.3000488,474.7999878,121.3000488z M474.7999878,93.1000366c2.7999878,0,5.2000122,1,7.2000122,3
			s3,4.2999878,3,7.0999756s-1,5.0999756-3,7.0999756s-4.4000244,2.9000244-7.2000122,2.9000244s-5.2000122-1-7.2000122-2.9000244
			c-2-2-3-4.2999878-3-7.0999756s1-5.0999756,3-7.0999756C469.7000122,94.1000366,472,93.1000366,474.7999878,93.1000366z"/>
		<path class="st0" d="M505.5,118.5l0.5999756,0.2999878c1.5999756,0.9000244,3.2999878,1.5,4.7999878,1.9000244
			c1.5999756,0.4000244,3.2999878,0.5,5.2999878,0.5999756c4.2000122-0.5,7.5-1.7000122,9.7999878-3.5
			c2.4000244-2.0999756,4.2000122-4.5,5.2000122-7c0.4000244-0.9000244,0.7000122-1.5999756,0.7999878-2.2000122
			c0.0999756-0.5999756,0.2999878-1.2999878,0.4000244-2.2000122c0.2000122-0.9000244,0.2000122-2.0999756,0.2000122-3.5
			c0-2.5999756-0.5999756-5.2999878-1.9000244-8.0999756c-1.2999878-2.7999878-3.4000244-5.0999756-6.2000122-7
			S518.2999268,85,514.499939,85c-2.7999878,0-5.5,0.7000122-8.0999756,1.9000244c-2.7000122,1.2999878-4.9000244,3.2999878-6.5,6
			c-1,1.5999756-1.7000122,3.2999878-2.2000122,4.9000244c-0.4000244,1.5999756-0.7000122,3.4000244-0.7000122,5.2999878v32.5999756
			h8.4000244L505.5,118.5L505.5,118.5z M505.5,109.7000122v-5c0-2.5999756,0.5-4.9000244,1.5-6.7000122
			s2.0999756-3.0999756,3.4000244-3.7999878c1.2999878-0.7999878,2.7000122-1.0999756,4.2999878-1.0999756
			c2.5,0,4.7999878,0.9000244,6.7000122,2.7999878c2,1.7999878,2.9000244,4.2000122,2.9000244,7.0999756
			c0,3-0.7999878,5.4000244-2.5,7.4000244c-1.7000122,1.9000244-3.7999878,2.9000244-6.2999878,2.9000244l-2.7000122-0.2999878
			l-2.2000122-0.7999878L505.5,109.7000122z"/>
		<path class="st0" d="M550.7999878,97.4000244l8.5999756,23h8l8.7000122-23l8.5999756,23h9l-12-31.7999878
			c-0.5-1.0999756-1.2000122-2-2.2999878-2.7999878c-1-0.5999756-2.0999756-0.9000244-3.4000244-0.9000244
			c-2.7999878,0-4.7999878,1.5-5.7999878,4.2999878l-6.7000122,18.7000122l-7.2000122-19.2000122
			c-0.5-1.2000122-1.2999878-2.0999756-2.2000122-2.5999756c-1-0.7000122-2.2000122-1.0999756-3.5999756-1.0999756
			c-3,0-5,1.5-5.7999878,4.2000122l-11.7999878,31.2999878h9.0999756L550.7999878,97.4000244z"/>
		<path class="st0" d="M328.7000122,145.5c-1.7999878-1-3.6000366-1.5-5.5-1.5c-4.4000244,0-7.7000122,1.5-9.7999878,4.5999756
			C311.1000366,145.5,308.2000122,144,304.5,144c-2.2999878,0-4.3999634,0.5-6.2999878,1.4000244
			c-2,1.2000122-3.3999634,2.5-4.2999878,4c-0.5999756,1-1,1.7999878-1.2999878,2.5999756s-0.3999634,1.7000122-0.3999634,2.7999878
			v22.2999878h6v-19.7000122c0-2.2999878,0.3999634-4.2000122,1.2999878-5.5999756
			c0.8999634-1.4000244,2.5-2.2000122,4.7999878-2.2000122c2,0,3.5,0.5999756,4.5,2
			c1,1.2999878,1.5999756,3.0999756,1.5999756,5.4000244v20.0999756h6.1000366v-20.5c0-1.9000244,0.5-3.5,1.5-4.9000244
			c1.0999756-1.4000244,2.7000122-2.0999756,4.8999634-2.0999756c2.2000122,0,3.6000366,0.7000122,4.5,2.2000122
			c0.9000244,1.4000244,1.4000244,3,1.4000244,4.7999878v20.5h6v-22.1999512c0-1.9000244-0.5-3.7000122-1.6000366-5.4000244
			C331.9000244,147.8000488,330.5,146.5,328.7000122,145.5z"/>
		<path class="st0" d="M365.4000244,146.9000244c-2.6000366-1.7000122-5.7999878-2.5999756-9.4000244-2.5999756
			c-2.5999756,0-5.0999756,0.5999756-7.5999756,1.7999878s-4.5,3.0999756-6,5.5c-1,1.5-1.6000366,3-2,4.5
			c-0.4000244,1.5-0.6000366,3.2000122-0.6000366,5v31.4000244h6v-30c0-2.7999878,0.5-5.2999878,1.7000122-7.2000122
			c1.1000366-2,2.4000244-3.4000244,3.9000244-4.2999878c1.5-0.9000244,3.0999756-1.2999878,4.8999634-1.2999878
			c2.7999878,0,5.4000244,1,7.5,3.0999756c2.1000366,2.0999756,3.2999878,4.7000122,3.2999878,8
			c0,3.2000122-0.8999634,6-2.7999878,8.2000122C362.4000244,171.2000732,360,172.3000488,357,172.3000488l-2.7999878-0.2999878
			l-2.3999634-0.9000244l-3.5-1.7000122v6.2000122c1.5,0.9000244,3,1.5,4.5,1.7999878c1.5,0.4000244,3.0999756,0.5,4.8999634,0.5
			c4-0.5,7-1.5,9.2000122-3.2000122c2.2999878-2,3.9000244-4.2000122,4.9000244-6.5c0.3999634-0.7999878,0.5999756-1.5,0.7999878-2
			c0.0999756-0.5,0.2999878-1.2000122,0.3999634-2.0999756c0.1000366-0.7999878,0.2000122-1.9000244,0.2000122-3.2999878
			c0-2.5-0.5999756-5-1.7999878-7.5999756C369.9000244,150.8000488,368,148.7000122,365.4000244,146.9000244z"/>
		<path class="st0" d="M391.5999756,144.1000366c-5.2999878,0-9.5,1.5999756-12.7000122,4.9000244
			C376,152.1000366,374.5,156.000061,374.5,160.8000488c0,5,1.5999756,9.2000122,4.8999634,12.4000244
			s7,4.7999878,11.2000122,4.7999878c2,0,3.6000366-0.2999878,4.7999878-0.7999878L399.5,174.9000854v-7.2000122
			c-2.4000244,3-5.2000122,4.5-8.2999878,4.5c-3,0-5.5-1.0999756-7.6000366-3.4000244c-2-2.2000122-3-5-3-8.2000122
			c0-3.9000244,1.2999878-6.9000244,3.9000244-8.7999878c1.8999634-1.4000244,4.0999756-2.2000122,6.7000122-2.2000122
			c3.3999634,0,6,0.7999878,7.8999634,2.5c1.9000244,1.7000122,2.7999878,3.7999878,2.7999878,6.2000122v18.7999878H408v-18.2999878
			c0-4.2000122-1.5-7.7000122-4.6000366-10.5999756C400.2999878,145.5,396.4000244,144.1000366,391.5999756,144.1000366z"/>
		<polygon class="st0" points="434.3999634,157.9000244 418.4000244,157.9000244 418.4000244,144.7000122 412.5,144.7000122 
			412.5,177.2000122 418.4000244,177.2000122 418.4000244,163.6000366 434.3999634,163.6000366 434.3999634,177.2000122 
			440.3999634,177.2000122 440.3999634,144.7000122 434.3999634,144.7000122 		"/>
		<path class="st0" d="M453.5,146c-2,0.9000244-3.7000122,2.0999756-5.2999878,3.9000244
			c-2.7000122,3.2000122-4.0999756,7-4.0999756,11.2000122c0,4.0999756,1.4000244,7.7999878,4.2999878,11
			c3.2000122,3.4000244,7.0999756,5.0999756,11.7999878,5.0999756h6V171.5h-4.9000244c-3.2999878,0-6-1.0999756-8-3.4000244
			c-1.7999878-2-2.7999878-4.2999878-2.7999878-6.9000244c0-3.5,1.2000122-6.2999878,3.5-8.2999878
			c2-1.7000122,4.4000244-2.5999756,7.0999756-2.5999756h5.0999756v-5.7000122h-6
			C457.7999878,144.7000122,455.5,145.2000122,453.5,146z"/>
		<path class="st0" d="M484,144.1000366c-3.9000244,0-7.2999878,1.2999878-10.0999756,3.7999878
			c-2.5,2.4000244-3.7999878,6-3.7999878,10.9000244v18.5h6v-19.5999756c0-2.2999878,0.7999878-4.0999756,2.2999878-5.7000122
			c1.7000122-1.5,3.5999756-2.2000122,5.5999756-2.2000122c2.2000122,0,4,0.9000244,5.7000122,2.5999756
			c1.5999756,1.7000122,2.4000244,3.5,2.4000244,5.4000244v19.5999756h6v-19.5
			c0-3.9000244-1.2999878-7.2999878-4.0999756-10.0999756C491.3999634,145.3000488,488.0999756,144.1000366,484,144.1000366z"/>
		<path class="st0" d="M518.7000122,144.2000122c-4.7000122,0-8.7000122,1.7000122-12,5s-5,7.2999878-5,12
			c0,4.5999756,1.7000122,8.5999756,5,12c3.2999878,3.2999878,7.2999878,5,12,5s8.7000122-1.5999756,12-5
			c3.2999878-3.2999878,5-7.2999878,5-12s-1.7000122-8.7000122-5-12
			C527.3999634,145.8000488,523.3999634,144.2000122,518.7000122,144.2000122z M526.7000122,169.2000122
			c-2.2999878,2.2000122-4.9000244,3.2999878-8,3.2999878c-3.2000122,0-5.7999878-1.0999756-8-3.2999878
			s-3.2999878-4.7999878-3.2999878-7.9000244c0-3.0999756,1.0999756-5.7999878,3.2999878-8s4.9000244-3.2999878,8-3.2999878
			c3.2000122,0,5.7999878,1.0999756,8,3.2999878s3.2999878,4.9000244,3.2999878,8
			C530.0999756,164.3000488,529,167,526.7000122,169.2000122z"/>
		<path class="st0" d="M565.2000122,146.9000244c-2.5999756-1.7000122-5.7999878-2.5999756-9.4000244-2.5999756
			c-2.5999756,0-5.0999756,0.5999756-7.5999756,1.7999878s-4.5,3.0999756-6,5.5c-1,1.5-1.5999756,3-2,4.5
			s-0.5999756,3.2000122-0.5999756,5v31.4000244h6v-30c0-2.7999878,0.5-5.2999878,1.7000122-7.2000122
			c1.0999756-2,2.4000244-3.4000244,3.9000244-4.2999878c1.5-0.9000244,3.0999756-1.2999878,4.9000244-1.2999878
			c2.7999878,0,5.4000244,1,7.5,3.0999756s3.2999878,4.7000122,3.2999878,8c0,3.2000122-0.9000244,6-2.7999878,8.2000122
			c-1.9000244,2.2000122-4.2999878,3.2999878-7.2999878,3.2999878l-2.7999878-0.2999878l-2.4000244-0.9000244l-3.5-1.7000122
			v6.2000122c1.5,0.9000244,3,1.5,4.5,1.7999878c1.5,0.4000244,3.0999756,0.5,4.9000244,0.5c4-0.5,7-1.5,9.2000122-3.2000122
			c2.2999878-2,3.9000244-4.2000122,4.9000244-6.5c0.4000244-0.7999878,0.5999756-1.5,0.7999878-2
			c0.0999756-0.5,0.2999878-1.2000122,0.4000244-2.0999756c0.0999756-0.7999878,0.2000122-1.9000244,0.2000122-3.2999878
			c0-2.5-0.5999756-5-1.7999878-7.5999756C569.7999878,150.8000488,567.8999634,148.7000122,565.2000122,146.9000244z"/>
		<path class="st0" d="M616.7999878,149.5c-1.0999756-1.7000122-2.5-3-4.2999878-4s-3.5999756-1.5-5.5-1.5
			c-4.4000244,0-7.7000122,1.5-9.7999878,4.5999756C594.9000244,145.5,592,144,588.2999878,144
			C586,144,583.8999634,144.5,582,145.4000244c-2,1.2000122-3.4000244,2.5-4.2999878,4
			c-0.5999756,1-1,1.7999878-1.2999878,2.5999756S576,153.7000122,576,154.7999878v22.2999878h6v-19.7000122
			c0-2.2999878,0.4000244-4.2000122,1.2999878-5.5999756c0.9000244-1.4000244,2.5-2.2000122,4.7999878-2.2000122
			c2,0,3.5,0.5999756,4.5,2c1,1.2999878,1.5999756,3.0999756,1.5999756,5.4000244v20.0999756h6.0999756v-20.5
			c0-1.9000244,0.5-3.5,1.5-4.9000244c1.0999756-1.4000244,2.7000122-2.0999756,4.9000244-2.0999756
			s3.7000122,0.7000122,4.5,2.2000122c0.9000244,1.4000244,1.2999878,3,1.2999878,4.7999878v20.5h5.9000244v-22.1999512
			C618.3999634,153,617.7999878,151.1000366,616.7999878,149.5z"/>
	</g>
</g>
</svg>
