<?xml version="1.0" encoding="utf-8"?>
<!-- Generator: Adobe Illustrator 24.0.2, SVG Export Plug-In . SVG Version: 6.00 Build 0)  -->
<svg version="1.1" id="Слой_1" xmlns="http://www.w3.org/2000/svg" xmlns:xlink="http://www.w3.org/1999/xlink" x="0px" y="0px"
	 viewBox="0 0 8.0429993 8.0420074" style="enable-background:new 0 0 8.0429993 8.0420074;" xml:space="preserve">
<style type="text/css">
	.st0{fill:#B3C726;}
</style>
<path class="st0" d="M4.3699951,4.010006c0,0.897995,0.2740021,1.4570007,0.8339996,1.4570007
	c0.5589905,0,0.8439941-0.5590057,0.8439941-1.4570007c0-0.8970032-0.2850037-1.4670029-0.8439941-1.4670029
	C4.6439972,2.5430031,4.3699951,3.1130028,4.3699951,4.010006 M3.6099854,4.010006
	c0-1.3190002,0.5910034-2.1320038,1.5940094-2.1320038c1.0130005,0,1.6040039,0.8130035,1.6040039,2.1320038
	c0,1.3199997-0.5910034,2.1329956-1.6040039,2.1329956C4.2009888,6.1430016,3.6099854,5.3300056,3.6099854,4.010006
	 M1.2879944,2.6070061L1.519989,1.9420052h1.2559967v4.1269989H2.0369873v-3.461998H1.2879944z M0,4.0209999
	C0,6.269001,1.772995,8.0420036,4.0209961,8.0420036c2.2489929,0,4.0220032-1.7730026,4.0220032-4.0210037
	c0-2.2479935-1.7730103-4.0209961-4.0220032-4.0209961C1.772995,0.0000038,0,1.7730064,0,4.0209999"/>
</svg>
