<?xml version="1.0" encoding="utf-8"?>
<!-- Generator: Adobe Illustrator 24.0.2, SVG Export Plug-In . SVG Version: 6.00 Build 0)  -->
<svg version="1.1" id="Слой_1" xmlns="http://www.w3.org/2000/svg" xmlns:xlink="http://www.w3.org/1999/xlink" x="0px" y="0px"
	 viewBox="0 0 8.0429993 8.0420074" style="enable-background:new 0 0 8.0429993 8.0420074;" xml:space="preserve">
<style type="text/css">
	.st0{fill:#272623;}
	.st1{fill:#FFDC00;}
</style>
<g>
	<path class="st0" d="M4.0215149,7.9579926c2.2059937,0,3.9369965-1.7309875,3.9369965-3.9369965
		c0-2.2059937-1.7310028-3.9369965-3.9369965-3.9369965c-2.2060089,0-3.9370117,1.7310028-3.9370117,3.9369965
		C0.0845032,6.227005,1.815506,7.9579926,4.0215149,7.9579926"/>
	<path class="st1" d="M3.3249969,3.0709991c0,0.3059998,0.2319946,0.5700073,0.7180023,0.5700073
		c0.4749908,0,0.7169952-0.2640076,0.7169952-0.5700073c0-0.2949982-0.2420044-0.5589905-0.7169952-0.5589905
		C3.5569916,2.5120087,3.3249969,2.776001,3.3249969,3.0709991 M3.2509918,4.8970032
		c0,0.3170013,0.2850037,0.6119995,0.802002,0.6119995c0.5070038,0,0.7919922-0.2949982,0.7919922-0.6119995
		c0-0.3059998-0.2849884-0.602005-0.7919922-0.602005C3.5359955,4.2949982,3.2509918,4.5910034,3.2509918,4.8970032
		 M2.4799957,4.9080048c0-0.4329987,0.3170013-0.8130035,0.7079926-0.9609985V3.9369965
		c-0.401001-0.147995-0.6129913-0.5389862-0.6129913-0.9079895c0-0.6119995,0.5699921-1.151001,1.4779968-1.151001
		c0.8970032,0,1.4669952,0.5390015,1.4669952,1.151001c0,0.3690033-0.2109985,0.7599945-0.6009979,0.9079895v0.0100098
		c0.3800049,0.147995,0.6959991,0.5279999,0.6959991,0.9609985c0,0.7489929-0.6329956,1.2350006-1.5619965,1.2350006
		C3.1139984,6.1430054,2.4799957,5.6569977,2.4799957,4.9080048 M0,4.0209961c0,2.2480011,1.772995,4.0210114,4.0209961,4.0210114
		c2.2489929,0,4.0220032-1.7730103,4.0220032-4.0210114C8.0429993,1.7730103,6.2799988,0,4.0209961,0
		C1.772995,0,0,1.7730103,0,4.0209961"/>
</g>
</svg>
