<?xml version="1.0" encoding="utf-8"?>
<!-- Generator: Adobe Illustrator 24.0.2, SVG Export Plug-In . SVG Version: 6.00 Build 0)  -->
<svg version="1.1" id="Слой_1" xmlns="http://www.w3.org/2000/svg" xmlns:xlink="http://www.w3.org/1999/xlink" x="0px" y="0px"
	 viewBox="0 0 32 32" style="enable-background:new 0 0 32 32;" xml:space="preserve">
<style type="text/css">
	.st0{fill:#FFFFFF;}
</style>
<g>
	<path class="st0" d="M30,15h-6c-0.5527077,0-1,0.4473-1,1c0,0.5527992,0.4472923,1,1,1h6c0.5527916,0,1-0.4472008,1-1
		C31,15.4473,30.5527916,15,30,15z"/>
	<path class="st0" d="M23.3780003,11.4667997l5.6375923-2.0507002c0.5195999-0.1894999,0.787199-0.7626991,0.5977001-1.2823
		C29.4247913,7.6142998,28.8515911,7.3477001,28.3320923,7.5362l-5.6387005,2.0517001
		c-0.5186005,0.1894999-0.7861004,0.7627001-0.5977001,1.2823C22.2851925,11.3896999,22.8583927,11.6562996,23.3780003,11.4667997z"
		/>
	<path class="st0" d="M29.0155926,22.5860004l-5.6385918-2.0536995c-0.5196095-0.1885014-1.0918083,0.0780983-1.2813091,0.597599
		c-0.1893997,0.5195999,0.0782013,1.0928001,0.5977001,1.2812996l5.6387005,2.0527
		c0.5194988,0.1895008,1.0917988-0.0781002,1.2812004-0.597599C29.8027916,23.3467007,29.5351925,22.7744999,29.0155926,22.5860004z
		"/>
	<path class="st0" d="M15,0H7C6.7402925,0,6.4804926,0.0528,6.2363925,0.1543C5.9902925,0.2559,5.7675924,0.4024,5.5820928,0.5899
		C5.3827925,0.7891,1,6,1,16s4.1581926,14.8437996,4.336,15.1093998c0.0565925,0.0860004,0.1307926,0.1543007,0.1971927,0.2285004
		c0.0313001,0.0331993,0.0546999,0.0683994,0.0879002,0.0995998c0.1640997,0.1583004,0.3495998,0.2812996,0.5507998,0.3710995
		c0.0429997,0.0214996,0.0879002,0.0352001,0.1328001,0.0508003C6.5273924,31.9414997,6.7597923,32,6.9960923,32
		C6.9980927,32,7,32,7,32h6h2c1.1054916,0,2-0.8945007,2-2v-8c0-1.1054001-0.8945084-2-2-2h-4v-8h4c1.1054916,0,2-0.8944998,2-2V2
		C17,0.8946,16.1054916,0,15,0z M15,22v8h-2v-8H15z M9,12v8c0,1.1044998,0.8954926,2,2,2v8H7.0458927
		c-0.0127001-0.0039005-0.0254002-0.0077991-0.0381002-0.0125999c-0.0057926-0.0069008-0.0117002-0.0137005-0.0184999-0.0205994
		l-0.0518003-0.0556011c-0.0214925-0.0292988-0.0477996-0.0634995-0.0780997-0.1035004C5.9540925,28.6270008,3,24.1396999,3,16
		C3,7.1943998,6.5654926,2.5411,7.0068927,2H11v8C9.8954926,10,9,10.8956003,9,12z M15,10h-2V2h2V10z"/>
</g>
</svg>
